<svg width="24" height="24" xmlns="http://www.w3.org/2000/svg"><g fill="none" fill-rule="evenodd"><path fill="none" d="M0 24h24V0H0z"/><path d="M7.845 16.987a.83.83 0 0 1-.589-1.419l8.312-8.312a.832.832 0 0 1 1.176 1.176l-8.312 8.312a.829.829 0 0 1-.587.243M8.675 10.238c-.862 0-1.564-.7-1.564-1.563 0-.862.702-1.564 1.564-1.564.863 0 1.565.702 1.565 1.564 0 .863-.702 1.563-1.565 1.563M15.325 16.888c-.863 0-1.565-.7-1.565-1.563 0-.862.702-1.563 1.565-1.563.862 0 1.564.701 1.564 1.563 0 .863-.702 1.563-1.564 1.563" fill="#757575"/><path d="M7.467 19.02c.327 0 .627.191.76.494A4.07 4.07 0 0 0 12 21.974a4.068 4.068 0 0 0 3.772-2.46.832.832 0 0 1 .85-.49c1.647.17 3.187-.602 4.016-2.037a4.072 4.072 0 0 0-.243-4.496.829.829 0 0 1 0-.981 4.074 4.074 0 0 0 .243-4.497c-.83-1.433-2.359-2.207-4.016-2.037a.832.832 0 0 1-.85-.49A4.068 4.068 0 0 0 12 2.026a4.07 4.07 0 0 0-3.772 2.46.829.829 0 0 1-.85.49c-1.651-.17-3.189.604-4.016 2.037a4.076 4.076 0 0 0 .243 4.497.829.829 0 0 1 0 .981 4.074 4.074 0 0 0-.243 4.496c.829 1.435 2.358 2.208 4.017 2.037.03-.002.06-.005.088-.005M12 23.636c-2.128 0-4.007-1.106-5.029-2.924h-.065c-2.062 0-3.932-1.07-4.983-2.896C.858 15.975.878 13.796 1.939 12 .88 10.205.86 8.026 1.923 6.184 2.985 4.34 4.889 3.194 6.97 3.288 7.993 1.47 9.872.364 12.001.364c2.128 0 4.006 1.106 5.029 2.924h.065c2.06 0 3.93 1.07 4.983 2.896 1.063 1.842 1.045 4.02-.018 5.816 1.063 1.796 1.081 3.975.018 5.816-1.052 1.825-2.923 2.896-4.983 2.896h-.065c-1.023 1.818-2.901 2.924-5.03 2.924" fill="#757575"/></g></svg>